# xmcd CD database file
#
# Track frame offsets:
#	150
#	15120
#	29257
#	72850
#	94672
#	121665
#	178452
#	200432
#	216090
#
# Disc length: 3232 seconds
#
# Revision: 0
# Processed by: cddbd v1.5.2PL0 Copyright (c) Steve Scherf et al.
# Submitted via: CDex 1.70beta2
#
DISCID=710c9e09
DTITLE=小泉文夫 - 小泉文夫の遺産民族音楽の礎-04 ナイルの歌 イスラムの宗教音楽
DYEAR=1900
DGENRE=World
TTITLE0=アブル・アジーズ・ザーベル師のアザーン(祈りの時を告げる呼び声)
TTITLE1=マグレブ教会のアザーン(祈りの時を告げる呼び声)
TTITLE2=アブデル・バーセット師の朗唱(コーランの朗唱)
TTITLE3=ターハ・エル・ファシャーニー師の朗唱(コーランの朗唱)
TTITLE4=エル・ハサリー師の朗唱(コーランの朗唱)
TTITLE5=スーフィー派信徒の儀式
TTITLE6=ハサンの受難物語
TTITLE7=マホメット降誕祭の音楽
TTITLE8=新しいイスラム音楽
EXTD=
EXTT0=
EXTT1=
EXTT2=
EXTT3=
EXTT4=
EXTT5=
EXTT6=
EXTT7=
EXTT8=
PLAYORDER=
